<svg width="258" height="57" viewBox="0 0 258 57" fill="none" xmlns="http://www.w3.org/2000/svg">
<path d="M0.56 44V2H5.36L22.82 30.74H19.7L37.16 2H41.96V44H35.06V14.12L36.62 14.54L23.66 35.84H18.86L5.9 14.54L7.46 14.12V44H0.56ZM50.2278 44V15.2H56.8278V44H50.2278ZM53.5278 9.92C52.4078 9.92 51.4678 9.54 50.7078 8.78C49.9878 8.02 49.6278 7.08 49.6278 5.96C49.6278 4.84 49.9878 3.9 50.7078 3.14C51.4678 2.38 52.4078 2 53.5278 2C54.6878 2 55.6278 2.38 56.3478 3.14C57.0678 3.9 57.4278 4.84 57.4278 5.96C57.4278 7.08 57.0678 8.02 56.3478 8.78C55.6278 9.54 54.6878 9.92 53.5278 9.92ZM83.9703 44V27.38C83.9703 25.46 83.3503 23.88 82.1103 22.64C80.9103 21.4 79.3503 20.78 77.4303 20.78C76.1503 20.78 75.0103 21.06 74.0103 21.62C73.0103 22.18 72.2303 22.96 71.6703 23.96C71.1103 24.96 70.8303 26.1 70.8303 27.38L68.2503 25.94C68.2503 23.74 68.7303 21.8 69.6903 20.12C70.6503 18.4 71.9703 17.06 73.6503 16.1C75.3703 15.1 77.2903 14.6 79.4103 14.6C81.5703 14.6 83.4903 15.16 85.1703 16.28C86.8503 17.36 88.1703 18.78 89.1303 20.54C90.0903 22.26 90.5703 24.06 90.5703 25.94V44H83.9703ZM64.2303 44V15.2H70.8303V44H64.2303ZM97.3372 44V15.2H103.937V44H97.3372ZM100.637 9.92C99.5172 9.92 98.5772 9.54 97.8172 8.78C97.0972 8.02 96.7372 7.08 96.7372 5.96C96.7372 4.84 97.0972 3.9 97.8172 3.14C98.5772 2.38 99.5172 2 100.637 2C101.797 2 102.737 2.38 103.457 3.14C104.177 3.9 104.537 4.84 104.537 5.96C104.537 7.08 104.177 8.02 103.457 8.78C102.737 9.54 101.797 9.92 100.637 9.92Z" fill="black"/>
<path d="M136.491 44.66C133.011 44.66 130.011 44.1 127.491 42.98C125.011 41.82 122.731 40.08 120.651 37.76L126.771 31.7C128.131 33.26 129.631 34.48 131.271 35.36C132.951 36.2 134.891 36.62 137.091 36.62C139.091 36.62 140.631 36.26 141.711 35.54C142.831 34.82 143.391 33.82 143.391 32.54C143.391 31.38 143.031 30.44 142.311 29.72C141.591 29 140.631 28.38 139.431 27.86C138.271 27.34 136.971 26.84 135.531 26.36C134.131 25.88 132.731 25.34 131.331 24.74C129.931 24.1 128.631 23.32 127.431 22.4C126.271 21.44 125.331 20.26 124.611 18.86C123.891 17.42 123.531 15.62 123.531 13.46C123.531 10.86 124.151 8.62 125.391 6.74C126.671 4.86 128.431 3.44 130.671 2.48C132.911 1.48 135.491 0.98 138.411 0.98C141.371 0.98 144.071 1.5 146.511 2.54C148.991 3.58 151.031 5 152.631 6.8L146.511 12.86C145.231 11.54 143.931 10.56 142.611 9.92C141.331 9.28 139.871 8.96 138.231 8.96C136.591 8.96 135.291 9.28 134.331 9.92C133.371 10.52 132.891 11.4 132.891 12.56C132.891 13.64 133.251 14.52 133.971 15.2C134.691 15.84 135.631 16.4 136.791 16.88C137.991 17.36 139.291 17.84 140.691 18.32C142.131 18.8 143.551 19.36 144.951 20C146.351 20.64 147.631 21.46 148.791 22.46C149.991 23.42 150.951 24.66 151.671 26.18C152.391 27.66 152.751 29.5 152.751 31.7C152.751 35.74 151.311 38.92 148.431 41.24C145.551 43.52 141.571 44.66 136.491 44.66ZM177.172 44V27.38C177.172 25.86 176.692 24.64 175.732 23.72C174.812 22.76 173.632 22.28 172.192 22.28C171.192 22.28 170.312 22.5 169.552 22.94C168.792 23.34 168.192 23.94 167.752 24.74C167.312 25.5 167.092 26.38 167.092 27.38L163.552 25.64C163.552 23.36 164.032 21.36 164.992 19.64C165.952 17.92 167.292 16.6 169.012 15.68C170.732 14.72 172.712 14.24 174.952 14.24C177.232 14.24 179.232 14.72 180.952 15.68C182.672 16.6 183.992 17.9 184.912 19.58C185.872 21.22 186.352 23.14 186.352 25.34V44H177.172ZM157.912 44V0.439999H167.092V44H157.912ZM206.288 44.66C203.288 44.66 200.568 44 198.128 42.68C195.728 41.32 193.828 39.48 192.428 37.16C191.028 34.84 190.328 32.24 190.328 29.36C190.328 26.48 191.028 23.9 192.428 21.62C193.828 19.34 195.728 17.54 198.128 16.22C200.528 14.86 203.248 14.18 206.288 14.18C209.328 14.18 212.048 14.84 214.448 16.16C216.848 17.48 218.748 19.3 220.148 21.62C221.548 23.9 222.248 26.48 222.248 29.36C222.248 32.24 221.548 34.84 220.148 37.16C218.748 39.48 216.848 41.32 214.448 42.68C212.048 44 209.328 44.66 206.288 44.66ZM206.288 36.32C207.608 36.32 208.768 36.04 209.768 35.48C210.768 34.88 211.528 34.06 212.048 33.02C212.608 31.94 212.888 30.72 212.888 29.36C212.888 28 212.608 26.82 212.048 25.82C211.488 24.78 210.708 23.98 209.708 23.42C208.748 22.82 207.608 22.52 206.288 22.52C205.008 22.52 203.868 22.82 202.868 23.42C201.868 23.98 201.088 24.78 200.528 25.82C199.968 26.86 199.688 28.06 199.688 29.42C199.688 30.74 199.968 31.94 200.528 33.02C201.088 34.06 201.868 34.88 202.868 35.48C203.868 36.04 205.008 36.32 206.288 36.32ZM243.618 44.6C241.658 44.6 239.858 44.22 238.218 43.46C236.578 42.7 235.238 41.66 234.198 40.34C233.158 38.98 232.558 37.44 232.398 35.72V23.42C232.558 21.7 233.158 20.14 234.198 18.74C235.238 17.34 236.578 16.24 238.218 15.44C239.858 14.64 241.658 14.24 243.618 14.24C246.378 14.24 248.818 14.9 250.938 16.22C253.098 17.54 254.778 19.34 255.978 21.62C257.218 23.9 257.838 26.5 257.838 29.42C257.838 32.34 257.218 34.94 255.978 37.22C254.778 39.5 253.098 41.3 250.938 42.62C248.818 43.94 246.378 44.6 243.618 44.6ZM241.938 36.32C243.258 36.32 244.398 36.02 245.358 35.42C246.358 34.82 247.138 34 247.698 32.96C248.258 31.92 248.538 30.74 248.538 29.42C248.538 28.06 248.258 26.86 247.698 25.82C247.138 24.78 246.358 23.98 245.358 23.42C244.398 22.82 243.278 22.52 241.998 22.52C240.718 22.52 239.578 22.82 238.578 23.42C237.618 23.98 236.858 24.78 236.298 25.82C235.738 26.86 235.458 28.06 235.458 29.42C235.458 30.74 235.718 31.92 236.238 32.96C236.798 34 237.578 34.82 238.578 35.42C239.578 36.02 240.698 36.32 241.938 36.32ZM226.818 56.3V14.84H235.998V22.34L234.498 29.42L235.878 36.5V56.3H226.818Z" fill="#FFC600"/>
</svg>
