<svg width="319" height="365" viewBox="0 0 319 365" fill="none" xmlns="http://www.w3.org/2000/svg">
<path d="M67.0364 289.836C66.8501 289.836 66.6714 289.762 66.5397 289.63C66.4079 289.498 66.3339 289.32 66.3339 289.133V283.647C66.3339 280.617 65.1297 277.711 62.9863 275.568C60.8428 273.426 57.9356 272.222 54.9043 272.222C51.873 272.222 48.9658 273.426 46.8224 275.568C44.6789 277.711 43.4747 280.617 43.4747 283.647V289.133C43.4747 289.32 43.4006 289.498 43.2688 289.63C43.137 289.762 42.9582 289.836 42.7718 289.836C42.5853 289.836 42.4065 289.762 42.2747 289.63C42.1429 289.498 42.0688 289.32 42.0688 289.133V283.647C42.0592 281.956 42.384 280.28 43.0247 278.714C43.6655 277.149 44.6094 275.726 45.8022 274.527C46.995 273.328 48.4132 272.377 49.9753 271.727C51.5373 271.078 53.2124 270.744 54.9041 270.744C56.5958 270.744 58.2709 271.078 59.8329 271.727C61.395 272.377 62.8132 273.328 64.006 274.527C65.1988 275.726 66.1427 277.149 66.7835 278.714C67.4242 280.28 67.749 281.956 67.7394 283.647V289.133C67.7394 289.32 67.6653 289.498 67.5335 289.63C67.4017 289.762 67.2229 289.836 67.0364 289.836V289.836Z" fill="#494945"/>
<path d="M83.6844 284.392H68.8947V364.18H83.6844V284.392Z" fill="#0CBC8B"/>
<path opacity="0.21" d="M83.6844 284.392H68.8947V364.18H83.6844V284.392Z" fill="#0A0A0A"/>
<path d="M68.8947 284.392H11.3302V364.18H68.8947V284.392Z" fill="#0CBC8B"/>
<path d="M52.2454 289.836C52.0591 289.836 51.8804 289.762 51.7486 289.63C51.6169 289.498 51.5429 289.32 51.5429 289.133V283.647C51.552 282.141 51.2631 280.647 50.6928 279.253C50.1225 277.859 49.282 276.592 48.2197 275.523C47.1575 274.455 45.8944 273.607 44.5031 273.029C43.1119 272.45 41.6199 272.153 40.1131 272.153C38.6063 272.153 37.1143 272.45 35.723 273.029C34.3318 273.607 33.0687 274.455 32.0064 275.523C30.9442 276.592 30.1037 277.859 29.5334 279.253C28.9631 280.647 28.6742 282.141 28.6833 283.647V289.133C28.6856 289.227 28.6691 289.32 28.6348 289.407C28.6005 289.495 28.5491 289.574 28.4836 289.641C28.4181 289.708 28.3399 289.762 28.2535 289.798C28.1671 289.834 28.0743 289.853 27.9805 289.853C27.8868 289.853 27.794 289.834 27.7076 289.798C27.6212 289.762 27.5429 289.708 27.4775 289.641C27.412 289.574 27.3606 289.495 27.3263 289.407C27.292 289.32 27.2755 289.227 27.2778 289.133V283.647C27.2681 281.956 27.593 280.28 28.2337 278.714C28.8744 277.149 29.8183 275.726 31.0112 274.527C32.204 273.328 33.6222 272.377 35.1842 271.727C36.7463 271.078 38.4213 270.744 40.1131 270.744C41.8048 270.744 43.4799 271.078 45.0419 271.727C46.604 272.377 48.0222 273.328 49.215 274.527C50.4078 275.726 51.3517 277.149 51.9924 278.714C52.6332 280.28 52.958 281.956 52.9484 283.647V289.133C52.9484 289.32 52.8743 289.498 52.7425 289.63C52.6107 289.762 52.4319 289.836 52.2454 289.836Z" fill="#494945"/>
<path opacity="0.11" d="M68.8947 284.392L76.2896 292.353L83.684 284.392H68.8947Z" fill="#0A0A0A"/>
<path opacity="0.11" d="M68.8947 364.18L76.2896 356.219L83.684 364.18H68.8947Z" fill="#0A0A0A"/>
<path d="M201.838 0H79.3475C69.2145 0 61 8.21083 61 18.3394V306.159C61 316.287 69.2145 324.498 79.3475 324.498H201.838C211.971 324.498 220.186 316.287 220.186 306.159V18.3394C220.186 8.21083 211.971 0 201.838 0Z" fill="#292A2E"/>
<path d="M201.78 5.72668H79.4052C72.4471 5.72668 66.8065 11.3648 66.8065 18.3198V305.751C66.8065 312.706 72.4471 318.344 79.4052 318.344H201.78C208.738 318.344 214.379 312.706 214.379 305.751V18.3198C214.379 11.3648 208.738 5.72668 201.78 5.72668Z" fill="white"/>
<path d="M110.369 3.3591H170.815V9.61098C170.815 11.4038 170.103 13.1231 168.834 14.391C167.566 15.6588 165.846 16.3713 164.053 16.3718H117.133C115.339 16.3718 113.618 15.6595 112.35 14.3916C111.082 13.1237 110.369 11.4041 110.369 9.61098V3.3591Z" fill="#292A2E"/>
<g opacity="0.15">
<path opacity="0.15" d="M200.921 88.2428H79.8456C78.1721 88.2409 76.5678 87.5756 75.3845 86.3928C74.2012 85.21 73.5356 83.6064 73.5337 81.9337V18.0919C73.5356 16.4192 74.2012 14.8155 75.3845 13.6327C76.5678 12.45 78.1721 11.7847 79.8456 11.7828H200.921C202.594 11.7847 204.199 12.45 205.382 13.6327C206.565 14.8155 207.231 16.4192 207.233 18.0919V81.9337C207.231 83.6064 206.565 85.21 205.382 86.3928C204.199 87.5756 202.594 88.2409 200.921 88.2428V88.2428ZM79.8456 12.6178C78.3937 12.6196 77.0019 13.197 75.9754 14.2232C74.9489 15.2494 74.3715 16.6407 74.3699 18.0919V81.9337C74.3714 83.3849 74.9488 84.7762 75.9753 85.8024C77.0019 86.8287 78.3937 87.406 79.8456 87.4078H200.921C202.373 87.4062 203.765 86.829 204.792 85.8027C205.818 84.7765 206.396 83.385 206.397 81.9337V18.0919C206.396 16.6405 205.818 15.2491 204.792 14.2229C203.765 13.1967 202.373 12.6194 200.921 12.6178H79.8456Z" fill="#292A2E"/>
</g>
<g opacity="0.43">
<path opacity="0.43" d="M143.234 29.7126C145.4 29.7126 147.156 27.9573 147.156 25.792C147.156 23.6267 145.4 21.8714 143.234 21.8714C141.068 21.8714 139.312 23.6267 139.312 25.792C139.312 27.9573 141.068 29.7126 143.234 29.7126Z" fill="#FFC600"/>
<path opacity="0.43" d="M155.764 29.7126C157.931 29.7126 159.687 27.9573 159.687 25.792C159.687 23.6267 157.931 21.8714 155.764 21.8714C153.598 21.8714 151.842 23.6267 151.842 25.792C151.842 27.9573 153.598 29.7126 155.764 29.7126Z" fill="#FFC600"/>
<path opacity="0.43" d="M168.294 29.7126C170.461 29.7126 172.217 27.9573 172.217 25.792C172.217 23.6267 170.461 21.8714 168.294 21.8714C166.128 21.8714 164.372 23.6267 164.372 25.792C164.372 27.9573 166.128 29.7126 168.294 29.7126Z" fill="#FFC600"/>
<path opacity="0.43" d="M180.825 29.7126C182.991 29.7126 184.747 27.9573 184.747 25.792C184.747 23.6267 182.991 21.8714 180.825 21.8714C178.658 21.8714 176.902 23.6267 176.902 25.792C176.902 27.9573 178.658 29.7126 180.825 29.7126Z" fill="#FFC600"/>
<path opacity="0.43" d="M193.355 29.7126C195.521 29.7126 197.277 27.9573 197.277 25.792C197.277 23.6267 195.521 21.8714 193.355 21.8714C191.189 21.8714 189.432 23.6267 189.432 25.792C189.432 27.9573 191.189 29.7126 193.355 29.7126Z" fill="#FFC600"/>
</g>
<g opacity="0.15">
<path opacity="0.15" d="M197.277 37.9213H140.383V38.7562H197.277V37.9213Z" fill="#292A2E"/>
</g>
<g opacity="0.15">
<path opacity="0.15" d="M197.277 46.271H140.383V47.106H197.277V46.271Z" fill="#292A2E"/>
</g>
<g opacity="0.15">
<path opacity="0.15" d="M170.607 54.6208H140.383V55.4558H170.607V54.6208Z" fill="#292A2E"/>
</g>
<g opacity="0.15">
<path opacity="0.15" d="M197.695 77.3969H178.264V71.2113H197.695V77.3969ZM179.099 76.5619H196.86V72.0463H179.099V76.5619Z" fill="#292A2E"/>
</g>
<path d="M170.481 71.6284H151.886V76.9789H170.481V71.6284Z" fill="#0CBC8B"/>
<path d="M125.507 32.9256C124.605 30.6178 121.605 29.2 116.088 27.4666C115.914 27.4119 115.371 27.2791 114.823 27.1484C114.656 27.1086 114.482 27.1063 114.314 27.1417C114.146 27.1771 113.988 27.2493 113.851 27.3531C113.714 27.457 113.602 27.5898 113.523 27.7421C113.444 27.8944 113.399 28.0624 113.393 28.2339C113.393 28.2339 112.725 31.1421 107.815 31.1421C102.01 31.1421 101.216 28.2339 101.216 28.2339C101.21 28.0624 101.165 27.8944 101.086 27.7421C101.007 27.5898 100.895 27.457 100.758 27.3531C100.621 27.2493 100.463 27.1771 100.295 27.1417C100.127 27.1063 99.9535 27.1086 99.7865 27.1484C99.2377 27.2791 98.6951 27.4119 98.5205 27.4666C93.0035 29.2 90.0046 30.6178 89.102 32.9256C85.9336 41.0249 81.1069 66.4983 81.1069 66.4983L88.2947 68.3829L94.3384 47.0075C95.2009 50.2134 95.4753 60.0056 95.4753 60.0056H102.361H112.248H118.948C118.948 60.0056 119.408 50.2134 120.27 47.0075L126.314 68.3829L133.502 66.4983C133.502 66.4983 128.675 41.0249 125.507 32.9256Z" fill="#FFC600"/>
<path opacity="0.48" d="M125.507 32.9256C124.605 30.6178 121.605 29.2 116.088 27.4666C115.914 27.4119 115.371 27.2791 114.823 27.1484C114.656 27.1086 114.482 27.1063 114.314 27.1417C114.146 27.1771 113.988 27.2493 113.851 27.3531C113.714 27.457 113.602 27.5898 113.523 27.7421C113.444 27.8944 113.399 28.0624 113.393 28.2339C113.393 28.2339 112.725 31.1421 107.815 31.1421C102.01 31.1421 101.216 28.2339 101.216 28.2339C101.21 28.0624 101.165 27.8944 101.086 27.7421C101.007 27.5898 100.895 27.457 100.758 27.3531C100.621 27.2493 100.463 27.1771 100.295 27.1417C100.127 27.1063 99.9535 27.1086 99.7865 27.1484C99.2377 27.2791 98.6951 27.4119 98.5205 27.4666C93.0035 29.2 90.0046 30.6178 89.102 32.9256C85.9336 41.0249 81.1069 66.4983 81.1069 66.4983L88.2947 68.3829L94.3384 47.0075C95.2009 50.2134 95.4753 60.0056 95.4753 60.0056H102.361H112.248H118.948C118.948 60.0056 119.408 50.2134 120.27 47.0075L126.314 68.3829L133.502 66.4983C133.502 66.4983 128.675 41.0249 125.507 32.9256Z" fill="white"/>
<g opacity="0.15">
<path opacity="0.15" d="M200.921 178.141H79.8456C78.1722 178.139 76.5679 177.474 75.3846 176.291C74.2013 175.109 73.5357 173.505 73.5337 171.833V107.99C73.5358 106.317 74.2015 104.714 75.3848 103.531C76.568 102.349 78.1723 101.684 79.8456 101.682H200.921C202.594 101.684 204.198 102.349 205.382 103.531C206.565 104.714 207.231 106.317 207.233 107.99V171.833C207.231 173.505 206.565 175.109 205.382 176.291C204.199 177.474 202.594 178.139 200.921 178.141ZM79.8456 102.517C78.3939 102.519 77.0022 103.096 75.9757 104.122C74.9493 105.148 74.3718 106.539 74.3699 107.99V171.833C74.3715 173.284 74.9489 174.675 75.9755 175.701C77.002 176.727 78.3938 177.304 79.8456 177.306H200.921C202.373 177.305 203.765 176.728 204.792 175.701C205.818 174.675 206.396 173.284 206.397 171.833V107.99C206.396 106.539 205.818 105.147 204.792 104.121C203.765 103.095 202.373 102.517 200.921 102.516L79.8456 102.517Z" fill="#292A2E"/>
</g>
<g opacity="0.43">
<path opacity="0.43" d="M143.234 119.612C145.4 119.612 147.156 117.856 147.156 115.691C147.156 113.526 145.4 111.77 143.234 111.77C141.068 111.77 139.312 113.526 139.312 115.691C139.312 117.856 141.068 119.612 143.234 119.612Z" fill="#FFC600"/>
<path opacity="0.43" d="M155.764 119.612C157.931 119.612 159.687 117.856 159.687 115.691C159.687 113.526 157.931 111.77 155.764 111.77C153.598 111.77 151.842 113.526 151.842 115.691C151.842 117.856 153.598 119.612 155.764 119.612Z" fill="#FFC600"/>
<path opacity="0.43" d="M168.294 119.612C170.461 119.612 172.217 117.856 172.217 115.691C172.217 113.526 170.461 111.77 168.294 111.77C166.128 111.77 164.372 113.526 164.372 115.691C164.372 117.856 166.128 119.612 168.294 119.612Z" fill="#FFC600"/>
<path opacity="0.43" d="M180.825 119.612C182.991 119.612 184.747 117.856 184.747 115.691C184.747 113.526 182.991 111.77 180.825 111.77C178.658 111.77 176.902 113.526 176.902 115.691C176.902 117.856 178.658 119.612 180.825 119.612Z" fill="#FFC600"/>
<path opacity="0.43" d="M193.355 119.612C195.521 119.612 197.277 117.856 197.277 115.691C197.277 113.526 195.521 111.77 193.355 111.77C191.189 111.77 189.432 113.526 189.432 115.691C189.432 117.856 191.189 119.612 193.355 119.612Z" fill="#FFC600"/>
</g>
<g opacity="0.15">
<path opacity="0.15" d="M197.277 127.82H140.383V128.655H197.277V127.82Z" fill="#292A2E"/>
</g>
<g opacity="0.15">
<path opacity="0.15" d="M197.277 136.17H140.383V137.004H197.277V136.17Z" fill="#292A2E"/>
</g>
<g opacity="0.15">
<path opacity="0.15" d="M170.607 144.519H140.383V145.354H170.607V144.519Z" fill="#292A2E"/>
</g>
<g opacity="0.15">
<path opacity="0.15" d="M197.695 167.295H178.264V161.11H197.695V167.295ZM179.099 166.46H196.86V161.945H179.099V166.46Z" fill="#292A2E"/>
</g>
<path d="M170.481 161.527H151.886V166.878H170.481V161.527Z" fill="#0CBC8B"/>
<path opacity="0.48" d="M125.179 126.371C123.824 124.695 120.839 123.626 117.35 122.779C115.933 122.435 114.972 122.306 114.972 122.306C113.85 125.149 110.38 127.207 107.322 127.208H107.11C104.051 127.208 100.761 125.149 99.6379 122.306C99.6379 122.306 98.6772 122.435 97.2571 122.779C93.7691 123.626 90.7832 124.695 89.4287 126.371C87.3462 128.946 84.4316 138.637 84.4316 138.637L92.8816 142.157C92.9467 142.332 93.0108 142.508 93.0737 142.685C93.1188 142.811 93.1634 142.937 93.2074 143.063C93.2032 143.05 93.1986 143.038 93.1944 143.026C93.2049 143.055 93.2153 143.085 93.2249 143.114C94.6715 147.384 95.6748 151.791 96.2188 156.265C96.2551 156.254 118.35 156.254 118.386 156.265C118.93 151.791 119.933 147.384 121.38 143.114V143.114C121.39 143.085 121.4 143.055 121.411 143.026C121.45 142.912 121.49 142.798 121.531 142.685C121.594 142.509 121.658 142.333 121.723 142.157L130.173 138.637C130.173 138.637 127.261 128.948 125.179 126.371Z" fill="white"/>
<path d="M125.179 126.371C123.824 124.695 120.839 123.626 117.35 122.779C115.933 122.435 114.972 122.306 114.972 122.306C113.85 125.149 110.38 127.207 107.322 127.208H107.11C104.051 127.208 100.761 125.149 99.6379 122.306C99.6379 122.306 98.6772 122.435 97.2571 122.779C93.7691 123.626 90.7832 124.695 89.4287 126.371C87.3462 128.946 84.4316 138.637 84.4316 138.637L92.8816 142.157C92.9467 142.332 93.0108 142.508 93.0737 142.685C93.1188 142.811 93.1634 142.937 93.2074 143.063C93.2032 143.05 93.1986 143.038 93.1944 143.026C93.2049 143.055 93.2153 143.085 93.2249 143.114C94.6715 147.384 95.6748 151.791 96.2188 156.265C96.2551 156.254 118.35 156.254 118.386 156.265C118.93 151.791 119.933 147.384 121.38 143.114V143.114C121.39 143.085 121.4 143.055 121.411 143.026C121.45 142.912 121.49 142.798 121.531 142.685C121.594 142.509 121.658 142.333 121.723 142.157L130.173 138.637C130.173 138.637 127.261 128.948 125.179 126.371Z" fill="#FFC600"/>
<path opacity="0.48" d="M125.179 126.371C123.824 124.695 120.839 123.626 117.35 122.779C115.933 122.435 114.972 122.306 114.972 122.306C113.85 125.149 110.38 127.207 107.322 127.208H107.11C104.051 127.208 100.761 125.149 99.6379 122.306C99.6379 122.306 98.6772 122.435 97.2571 122.779C93.7691 123.626 90.7832 124.695 89.4287 126.371C87.3462 128.946 84.4316 138.637 84.4316 138.637L92.8816 142.157C92.9467 142.332 93.0108 142.508 93.0737 142.685C93.1188 142.811 93.1634 142.937 93.2074 143.063C93.2032 143.05 93.1986 143.038 93.1944 143.026C93.2049 143.055 93.2153 143.085 93.2249 143.114C94.6715 147.384 95.6748 151.791 96.2188 156.265C96.2551 156.254 118.35 156.254 118.386 156.265C118.93 151.791 119.933 147.384 121.38 143.114V143.114C121.39 143.085 121.4 143.055 121.411 143.026C121.45 142.912 121.49 142.798 121.531 142.685C121.594 142.509 121.658 142.333 121.723 142.157L130.173 138.637C130.173 138.637 127.261 128.948 125.179 126.371Z" fill="white"/>
<g opacity="0.15">
<path opacity="0.15" d="M200.921 266.787H79.8456C78.1721 266.785 76.5677 266.12 75.3844 264.937C74.2012 263.754 73.5356 262.15 73.5337 260.478V196.636C73.5357 194.963 74.2013 193.36 75.3846 192.177C76.5679 190.994 78.1722 190.329 79.8456 190.327H200.921C202.594 190.329 204.199 190.994 205.382 192.177C206.565 193.36 207.231 194.963 207.233 196.636V260.478C207.231 262.15 206.565 263.754 205.382 264.937C204.199 266.12 202.594 266.785 200.921 266.787V266.787ZM79.8456 191.162C78.3937 191.164 77.0017 191.741 75.9751 192.767C74.9484 193.793 74.3708 195.185 74.369 196.636V260.478C74.3706 261.929 74.9481 263.321 75.9748 264.347C77.0015 265.373 78.3935 265.951 79.8456 265.952H200.921C202.373 265.951 203.765 265.373 204.792 264.347C205.818 263.321 206.396 261.929 206.397 260.478V196.636C206.396 195.185 205.818 193.793 204.791 192.767C203.765 191.741 202.373 191.164 200.921 191.162H79.8456Z" fill="#292A2E"/>
</g>
<g opacity="0.43">
<path opacity="0.43" d="M143.234 208.257C145.4 208.257 147.156 206.501 147.156 204.336C147.156 202.171 145.4 200.415 143.234 200.415C141.068 200.415 139.312 202.171 139.312 204.336C139.312 206.501 141.068 208.257 143.234 208.257Z" fill="#FFC600"/>
<path opacity="0.43" d="M155.764 208.257C157.931 208.257 159.687 206.501 159.687 204.336C159.687 202.171 157.931 200.415 155.764 200.415C153.598 200.415 151.842 202.171 151.842 204.336C151.842 206.501 153.598 208.257 155.764 208.257Z" fill="#FFC600"/>
<path opacity="0.43" d="M168.294 208.257C170.461 208.257 172.217 206.501 172.217 204.336C172.217 202.171 170.461 200.415 168.294 200.415C166.128 200.415 164.372 202.171 164.372 204.336C164.372 206.501 166.128 208.257 168.294 208.257Z" fill="#FFC600"/>
<path opacity="0.43" d="M180.825 208.257C182.991 208.257 184.747 206.501 184.747 204.336C184.747 202.171 182.991 200.415 180.825 200.415C178.658 200.415 176.902 202.171 176.902 204.336C176.902 206.501 178.658 208.257 180.825 208.257Z" fill="#FFC600"/>
<path opacity="0.43" d="M193.355 208.257C195.521 208.257 197.277 206.501 197.277 204.336C197.277 202.171 195.521 200.415 193.355 200.415C191.189 200.415 189.432 202.171 189.432 204.336C189.432 206.501 191.189 208.257 193.355 208.257Z" fill="#FFC600"/>
</g>
<g opacity="0.15">
<path opacity="0.15" d="M197.277 216.465H140.383V217.3H197.277V216.465Z" fill="#292A2E"/>
</g>
<g opacity="0.15">
<path opacity="0.15" d="M197.277 224.815H140.383V225.65H197.277V224.815Z" fill="#292A2E"/>
</g>
<g opacity="0.15">
<path opacity="0.15" d="M170.607 233.165H140.383V234H170.607V233.165Z" fill="#292A2E"/>
</g>
<g opacity="0.15">
<path opacity="0.15" d="M197.695 255.941H178.264V249.755H197.695V255.941ZM179.099 255.106H196.86V250.59H179.099V255.106Z" fill="#292A2E"/>
</g>
<path d="M170.481 250.173H151.886V255.523H170.481V250.173Z" fill="#0CBC8B"/>
<path opacity="0.48" d="M118.949 250.586C119.173 250.585 119.393 250.534 119.594 250.435C119.795 250.337 119.971 250.194 120.109 250.018C120.247 249.841 120.342 249.636 120.389 249.417C120.435 249.198 120.432 248.972 120.378 248.755C118.878 242.52 118.764 230.783 120.058 225.739L121.491 220.156L121.488 220.13C121.513 219.939 121.494 219.745 121.433 219.562C121.373 219.379 121.271 219.212 121.137 219.074C115.72 213.518 116.434 207.811 116.434 207.811H114.099C114.25 209.156 114.162 210.517 113.839 211.831C113.254 214.137 111.698 216.697 107.754 217.312C106.501 217.499 105.226 217.499 103.973 217.312V217.312C100.029 216.697 98.473 214.137 97.8882 211.831C97.5646 210.517 97.4765 209.156 97.628 207.811H95.2945C95.2945 207.811 96.0071 213.517 90.5903 219.074C90.4558 219.212 90.3543 219.379 90.2935 219.561C90.2327 219.744 90.214 219.939 90.239 220.13L90.2194 220.156L91.652 225.738C92.9468 230.783 92.8323 242.521 91.3324 248.754C91.2785 248.971 91.2746 249.198 91.3212 249.417C91.3677 249.635 91.4633 249.841 91.601 250.017C91.7386 250.194 91.9145 250.336 92.1154 250.435C92.3164 250.533 92.5371 250.585 92.7609 250.585L118.949 250.586Z" fill="white"/>
<path d="M118.949 250.586C119.173 250.585 119.393 250.534 119.594 250.435C119.795 250.337 119.971 250.194 120.109 250.018C120.247 249.841 120.342 249.636 120.389 249.417C120.435 249.198 120.432 248.972 120.378 248.755C118.878 242.52 118.764 230.783 120.058 225.739L121.491 220.156L121.488 220.13C121.513 219.939 121.494 219.745 121.433 219.562C121.373 219.379 121.271 219.212 121.137 219.074C115.72 213.518 116.434 207.811 116.434 207.811H114.099C114.25 209.156 114.162 210.517 113.839 211.831C113.254 214.137 111.698 216.697 107.754 217.312C106.501 217.499 105.226 217.499 103.973 217.312V217.312C100.029 216.697 98.473 214.137 97.8882 211.831C97.5646 210.517 97.4765 209.156 97.628 207.811H95.2945C95.2945 207.811 96.0071 213.517 90.5903 219.074C90.4558 219.212 90.3543 219.379 90.2935 219.561C90.2327 219.744 90.214 219.939 90.239 220.13L90.2194 220.156L91.652 225.738C92.9468 230.783 92.8323 242.521 91.3324 248.754C91.2785 248.971 91.2746 249.198 91.3212 249.417C91.3677 249.635 91.4633 249.841 91.601 250.017C91.7386 250.194 91.9145 250.336 92.1154 250.435C92.3164 250.533 92.5371 250.585 92.7609 250.585L118.949 250.586Z" fill="#FFC600"/>
<path opacity="0.48" d="M118.949 250.586C119.173 250.585 119.393 250.534 119.594 250.435C119.795 250.337 119.971 250.194 120.109 250.018C120.247 249.841 120.342 249.636 120.389 249.417C120.435 249.198 120.432 248.972 120.378 248.755C118.878 242.52 118.764 230.783 120.058 225.739L121.491 220.156L121.488 220.13C121.513 219.939 121.494 219.745 121.433 219.562C121.373 219.379 121.271 219.212 121.137 219.074C115.72 213.518 116.434 207.811 116.434 207.811H114.099C114.25 209.156 114.162 210.517 113.839 211.831C113.254 214.137 111.698 216.697 107.754 217.312C106.501 217.499 105.226 217.499 103.973 217.312V217.312C100.029 216.697 98.473 214.137 97.8882 211.831C97.5646 210.517 97.4765 209.156 97.628 207.811H95.2945C95.2945 207.811 96.0071 213.517 90.5903 219.074C90.4558 219.212 90.3543 219.379 90.2935 219.561C90.2327 219.744 90.214 219.939 90.239 220.13L90.2194 220.156L91.652 225.738C92.9468 230.783 92.8323 242.521 91.3324 248.754C91.2785 248.971 91.2746 249.198 91.3212 249.417C91.3677 249.635 91.4633 249.841 91.601 250.017C91.7386 250.194 91.9145 250.336 92.1154 250.435C92.3164 250.533 92.5371 250.585 92.7609 250.585L118.949 250.586Z" fill="white"/>
<path d="M283.194 346.529C283.194 346.529 281.308 356.299 272.156 356.845C263.003 357.391 264.988 364.678 264.988 364.678H299.963V347.211L283.194 346.529Z" fill="#FFC600"/>
<path d="M293.982 168.291C293.982 168.291 293.872 165.354 293.895 172.017C293.982 196.87 294.413 225.257 295.468 241.869C297.162 268.573 301.507 352.765 301.507 352.765L278.524 352.572L256.249 167.282L293.982 168.291Z" fill="#262626"/>
<path d="M268.028 197.597C268.028 197.597 267.075 215.632 266.9 219.866C266.492 229.658 266.35 239.797 266.35 251.292L262.727 221.157C262.727 221.157 265.377 211.715 268.028 197.597Z" fill="#0A0A0A"/>
<path d="M242.278 346.529C242.278 346.529 240.392 356.299 231.24 356.845C222.087 357.391 224.072 364.678 224.072 364.678H259.048V347.211L242.278 346.529Z" fill="#FFC600"/>
<path d="M231.15 170.221C231.15 170.221 229.114 255.161 229.413 259.313L237.96 352.12L260.563 352.538L258.36 255.955C258.36 255.955 259.914 229.313 266.354 204.574C269.649 191.876 271.632 178.875 272.272 165.773L231.15 170.221Z" fill="#262626"/>
<path d="M294.232 168.289L294.307 168.294C294.307 168.294 294.253 166.844 294.232 168.289Z" fill="#333333"/>
<path d="M227.915 123.075C228.389 128.641 230.694 163.367 231.15 170.223H293.958C294.313 164.039 295.906 137.001 297.251 124.909C298.536 113.371 301.056 107.594 299.209 104.183C296.191 98.6077 287.943 95.3859 282.32 94.6248C278.886 94.1602 273.721 93.827 273.721 93.827C273.721 93.827 273.283 102.668 262.854 103.161C248.66 103.829 249.607 93.8266 249.537 93.8266C247.238 93.8266 233.847 94.9075 230.887 97.1857C225.71 101.169 226.909 111.278 227.915 123.075Z" fill="#FFC600"/>
<path d="M227.047 116.099C226.994 116.099 226.942 116.079 226.903 116.042C226.864 116.006 226.841 115.956 226.838 115.903L226.331 107.064C226.328 107.009 226.347 106.954 226.384 106.913C226.421 106.872 226.472 106.847 226.528 106.843C226.583 106.841 226.637 106.86 226.678 106.897C226.719 106.933 226.744 106.985 226.748 107.04L227.255 115.878C227.258 115.934 227.239 115.988 227.202 116.029C227.166 116.071 227.114 116.096 227.059 116.099L227.047 116.099Z" fill="#0C0C0C"/>
<path d="M307.535 169.857C309.382 169.857 311.202 169.411 312.84 168.556C314.477 167.702 315.884 166.464 316.94 164.95C317.997 163.435 318.671 161.687 318.907 159.856C319.142 158.024 318.931 156.163 318.292 154.431C317.643 152.672 302.431 112.408 299.536 104.948L278.093 113.631C279.722 117.826 285.62 133.726 290.36 146.534L282.486 145.679L280.008 168.468L306.294 169.79C306.706 169.835 307.12 169.857 307.535 169.857Z" fill="#FFC600"/>
<path d="M242.055 93.063C242.125 93.0539 244.052 100.301 259.087 99.173C269.495 98.3935 272.034 91.3117 272.272 91.3117C271.149 91.0733 269.327 90.8257 268.828 90.5602C267.189 89.6801 265.996 88.6084 265.395 86.3089C264.925 84.5104 264.685 77.5872 264.685 74.1137L248.668 77.7112C248.892 81.6293 250.454 90.713 244.978 92.3207C244.067 92.5863 243.086 92.8309 242.055 93.063Z" fill="#E98862"/>
<path d="M249.223 85.4142C255.537 85.9119 263.648 83.2475 265.189 74.8272L266.579 67.2289C268.12 58.8086 264.944 51.1736 257.012 49.7236C249.08 48.2737 241.903 54.0158 240.362 62.4361L239.747 65.7998C239.156 69.0312 237.957 84.5258 249.223 85.4142Z" fill="#E98862"/>
<path d="M243.368 77.6832C244.501 71.9907 245.021 68.1933 244.961 64.1866C243.365 61.3895 243.784 58.1748 244.147 56.7871C243.048 57.4852 241.756 57.8166 240.456 57.7335C240.456 57.7335 243.096 47.1427 252.069 44.2929C253.719 43.6508 257.932 42.8401 263.526 43.607C268.284 44.2591 280.012 47.8153 281.688 61.0129V61.0204C281.743 61.4579 282.869 73.6181 285.113 79.4525C288.131 87.2959 292.368 89.7327 292.26 98.7822C292.122 110.422 270.713 111.971 257.802 111.101C244.891 110.23 237.681 105.986 237.587 97.5974C237.484 88.1985 241.1 89.0714 243.368 77.6832Z" fill="#0A0A0A"/>
<path d="M295.298 125.142L293.755 170.216L294.172 170.23L295.715 125.156L295.298 125.142Z" fill="#0C0C0C"/>
<path d="M159.05 73.6194L165.799 81.5875L165.382 80.2194C165.256 79.7751 165.303 79.2996 165.514 78.8889C165.725 78.4782 166.085 78.1629 166.519 78.0067C166.747 77.934 166.986 77.9082 167.224 77.9311C167.462 77.954 167.692 78.025 167.901 78.1398C168.11 78.2546 168.294 78.4108 168.441 78.5989C168.587 78.787 168.694 79.003 168.755 79.2337L171.84 90.8474C172.23 92.3135 172.031 93.8737 171.286 95.1952C170.541 96.5167 169.308 97.4948 167.852 97.9209C166.161 98.4158 164.361 98.3946 162.682 97.8601C161.003 97.3256 159.522 96.3021 158.429 94.9208L153.489 88.6548C153.226 88.3342 153.082 87.9326 153.081 87.5181C153.08 87.1035 153.223 86.7014 153.485 86.3799C153.727 86.0942 154.054 85.8935 154.419 85.8072C154.783 85.7209 155.166 85.7535 155.51 85.9002C155.516 85.8802 155.525 85.8616 155.538 85.8453C155.55 85.829 155.566 85.8155 155.584 85.8056C155.602 85.7956 155.622 85.7894 155.643 85.7874C155.663 85.7853 155.684 85.7875 155.703 85.7937L154.788 84.6373C154.508 84.2982 154.36 83.8693 154.371 83.4296C154.383 82.9899 154.553 82.5692 154.85 82.2451C155.154 81.9336 155.564 81.7464 155.999 81.72C156.434 81.6937 156.863 81.8299 157.202 82.1023C157.205 82.0837 157.211 82.0657 157.22 82.0493L156.844 81.575C156.599 81.2502 156.464 80.8551 156.461 80.4482C156.458 80.0413 156.586 79.6442 156.826 79.3156C157.12 78.9618 157.54 78.7369 157.997 78.6891C158.454 78.6414 158.912 78.7745 159.272 79.0601L159.297 79.0363L156.461 75.6884C156.315 75.5168 156.206 75.3173 156.14 75.1021C156.075 74.8869 156.053 74.6606 156.078 74.437C156.103 74.2134 156.173 73.9971 156.284 73.8014C156.395 73.6057 156.544 73.4347 156.724 73.2987C157.08 73.0477 157.518 72.9412 157.95 73.0007C158.382 73.0603 158.775 73.2814 159.05 73.6194Z" fill="#E98862"/>
<path opacity="0.2" d="M159.203 79.2463C159.21 79.2642 159.22 79.2808 159.233 79.2951L162.025 82.5152C162.055 82.5419 162.094 82.5568 162.135 82.557C162.175 82.5572 162.214 82.5428 162.245 82.5164C162.275 82.49 162.295 82.4534 162.301 82.4135C162.307 82.3735 162.298 82.3328 162.276 82.2989L159.483 79.0793C159.458 79.0501 159.423 79.0308 159.384 79.0247C159.346 79.0186 159.307 79.0262 159.274 79.0462C159.241 79.0661 159.215 79.097 159.203 79.1336C159.19 79.1702 159.191 79.2101 159.204 79.2463H159.203Z" fill="#0C0C0C"/>
<path opacity="0.2" d="M157.206 82.1774C157.213 82.195 157.223 82.2112 157.235 82.2255L159.41 84.7721C159.44 84.7976 159.479 84.8116 159.518 84.8115C159.558 84.8113 159.596 84.7971 159.626 84.7714C159.656 84.7457 159.676 84.7101 159.683 84.671C159.689 84.6319 159.681 84.5918 159.66 84.558L157.485 82.0113C157.459 81.9838 157.424 81.9661 157.387 81.9609C157.349 81.9558 157.311 81.9636 157.279 81.983C157.246 82.0024 157.221 82.0323 157.208 82.0678C157.194 82.1033 157.194 82.1423 157.205 82.1783L157.206 82.1774Z" fill="#0C0C0C"/>
<path opacity="0.2" d="M155.509 86.0091C155.516 86.028 155.526 86.0453 155.54 86.0601L156.595 87.2395C156.608 87.2597 156.626 87.2769 156.646 87.2898C156.666 87.3027 156.689 87.3111 156.713 87.3143C156.737 87.3175 156.761 87.3155 156.785 87.3084C156.808 87.3013 156.829 87.2893 156.847 87.2732C156.865 87.2571 156.879 87.2373 156.889 87.2152C156.898 87.1931 156.903 87.1691 156.902 87.145C156.902 87.1209 156.896 87.0972 156.886 87.0755C156.875 87.0539 156.86 87.0347 156.841 87.0195L155.786 85.8401C155.759 85.8137 155.725 85.7971 155.687 85.7927C155.65 85.7884 155.613 85.7966 155.581 85.8161C155.549 85.8356 155.525 85.8652 155.512 85.9002C155.498 85.9352 155.497 85.9735 155.509 86.0091V86.0091Z" fill="#0C0C0C"/>
<path d="M192.366 148.647C190.242 148.647 188.153 148.097 186.303 147.052C184.454 146.007 182.906 144.502 181.81 142.682L154.499 97.331L175.612 84.6277L196.374 119.104L230.887 97.1861L245.508 116.782L199.035 146.686C197.046 147.966 194.731 148.646 192.366 148.647V148.647Z" fill="#FFC600"/>
<path d="M228.264 128.076C228.218 128.076 228.172 128.061 228.136 128.032C228.099 128.003 228.073 127.962 228.062 127.917C228.051 127.872 228.055 127.824 228.075 127.781C228.094 127.739 228.127 127.704 228.169 127.682L234.132 124.607C234.182 124.581 234.239 124.577 234.292 124.593C234.345 124.61 234.388 124.647 234.414 124.697C234.439 124.746 234.444 124.803 234.427 124.856C234.41 124.909 234.373 124.952 234.324 124.978L228.361 128.054C228.331 128.069 228.298 128.077 228.264 128.076V128.076Z" fill="#0C0C0C"/>
<path d="M133.316 364.18H118.526L112.54 303.596H127.33L133.316 364.18Z" fill="#FFC600"/>
<path opacity="0.21" d="M133.316 364.18H118.526L112.54 303.596H127.33L133.316 364.18Z" fill="#0A0A0A"/>
<path d="M118.526 364.18H60.9619L66.948 303.596H112.54L118.526 364.18Z" fill="#FFC600"/>
<path d="M89.7446 328.385C88.059 328.385 86.39 328.054 84.8327 327.409C83.2755 326.764 81.8605 325.819 80.6687 324.628C79.4768 323.436 78.5314 322.022 77.8864 320.465C77.2414 318.909 76.9095 317.24 76.9095 315.556V310.068C76.9072 309.975 76.9237 309.881 76.958 309.794C76.9923 309.707 77.0437 309.627 77.1092 309.56C77.1747 309.493 77.2529 309.44 77.3393 309.404C77.4257 309.367 77.5185 309.348 77.6122 309.348C77.706 309.348 77.7988 309.367 77.8852 309.404C77.9716 309.44 78.0498 309.493 78.1153 309.56C78.1808 309.627 78.2322 309.707 78.2665 309.794C78.3008 309.881 78.3173 309.975 78.315 310.068V315.555C78.315 318.585 79.5192 321.491 81.6626 323.633C83.8061 325.776 86.7133 326.979 89.7446 326.979C92.7759 326.979 95.6831 325.776 97.8265 323.633C99.97 321.491 101.174 318.585 101.174 315.555V310.068C101.174 309.882 101.248 309.703 101.38 309.571C101.512 309.44 101.691 309.366 101.877 309.366C102.064 309.366 102.242 309.44 102.374 309.571C102.506 309.703 102.58 309.882 102.58 310.068V315.555C102.576 318.956 101.223 322.218 98.8167 324.623C96.4104 327.029 93.1477 328.382 89.7446 328.385V328.385Z" fill="white"/>
<path opacity="0.08" d="M112.54 303.596L120.705 311.557L127.33 303.596H112.54Z" fill="#0A0A0A"/>
<path opacity="0.08" d="M118.526 364.18L125.131 356.219L133.316 364.18H118.526Z" fill="#0A0A0A"/>
<path d="M314.191 365H0.322875C0.279527 365.002 0.236309 364.994 0.195802 364.979C0.155294 364.963 0.118328 364.94 0.0871097 364.91C0.0558915 364.88 0.0310617 364.844 0.0141027 364.804C-0.00285626 364.764 -0.0115967 364.721 -0.0115967 364.677C-0.0115967 364.634 -0.00285626 364.591 0.0141027 364.551C0.0310617 364.511 0.0558915 364.475 0.0871097 364.445C0.118328 364.415 0.155294 364.392 0.195802 364.376C0.236309 364.361 0.279527 364.353 0.322875 364.355H314.191C314.234 364.353 314.277 364.361 314.318 364.376C314.358 364.392 314.395 364.415 314.427 364.445C314.458 364.475 314.483 364.511 314.5 364.551C314.517 364.591 314.525 364.634 314.525 364.677C314.525 364.721 314.517 364.764 314.5 364.804C314.483 364.844 314.458 364.88 314.427 364.91C314.395 364.94 314.358 364.963 314.318 364.979C314.277 364.994 314.234 365.002 314.191 365V365Z" fill="#3F3F3F"/>
</svg>
